/home/minht/3dpredictsim_tutorial/predsim_tutorial/Results/Case_12/GRF.mot
version=1
nRows=12
nColumns=19
inDegrees=yes
endheader 
time	r_ground_force_vx	r_ground_force_vy	r_ground_force_vz	r_ground_force_px	r_ground_force_py	r_ground_force_pz	l_ground_force_vx	l_ground_force_vy	l_ground_force_vz	l_ground_force_px	l_ground_force_py	l_ground_force_pz	r_ground_torque_x	r_ground_torque_y	r_ground_torque_z	l_ground_torque_x	l_ground_torque_y	l_ground_torque_z	
          0.25919432	         78.66108170	        593.22527552	         -8.99188920	         -0.19494502	          0.00000000	          0.09795030	       -214.78932983	        198.02803375	        -37.47459353	          0.32952817	          0.00000000	         -0.12795735	          0.00000000	        -11.46526763	          0.00000000	          0.00000000	          0.01429328	          0.00000000	
          0.26704869	         79.77246667	        577.82933927	         -0.90973717	         -0.19507834	          0.00000000	          0.09595151	        -69.82062728	        330.51387170	        -18.47385183	          0.34102410	          0.00000000	         -0.12623490	          0.00000000	        -11.28466687	          0.00000000	          0.00000000	         -0.22214928	          0.00000000	
          0.27490307	         82.60439255	        562.86908502	          6.24598283	         -0.19522169	          0.00000000	          0.09409610	        -80.80057103	        578.82683653	          0.39593091	          0.35288095	          0.00000000	         -0.12478748	          0.00000000	        -10.98537441	          0.00000000	          0.00000000	         -3.06437739	          0.00000000	
          0.28275744	         86.43083794	        545.79784838	         14.13211744	         -0.19537996	          0.00000000	          0.09236231	       -164.32896742	        917.65989284	         -0.20127912	          0.36975626	          0.00000000	         -0.11951637	          0.00000000	        -10.84704837	          0.00000000	          0.00000000	         -8.33458835	          0.00000000	
          0.29061181	         88.19348197	        528.42195092	         22.83550376	         -0.19562223	          0.00000000	          0.09087908	       -234.82896100	       1190.73634915	          6.43434198	          0.37717711	          0.00000000	         -0.11699814	          0.00000000	        -10.87540636	          0.00000000	          0.00000000	        -12.09266621	          0.00000000	
          0.29846619	         86.73824475	        511.90448442	         31.47337206	         -0.19596108	          0.00000000	          0.08976969	       -250.93902454	       1289.71694262	         13.05733310	          0.37924159	          0.00000000	         -0.11653709	          0.00000000	        -10.95793930	          0.00000000	          0.00000000	        -14.50433868	          0.00000000	
          0.30632056	         83.73109547	        496.49416850	         38.22270070	         -0.19633698	          0.00000000	          0.08909155	       -232.38906724	       1241.99653891	         13.51816599	          0.37955515	          0.00000000	         -0.11630006	          0.00000000	        -10.88803552	          0.00000000	          0.00000000	        -14.88020422	          0.00000000	
          0.31417493	         82.00187898	        481.30382502	         41.57077671	         -0.19665847	          0.00000000	          0.08877673	       -206.58001574	       1138.49881243	         10.03030058	          0.37976146	          0.00000000	         -0.11585972	          0.00000000	        -10.50949602	          0.00000000	          0.00000000	        -14.26761235	          0.00000000	
          0.32202931	         82.48568329	        467.02358820	         41.85563149	         -0.19690175	          0.00000000	          0.08874832	       -181.30346550	       1030.22996092	          5.92843454	          0.37990214	          0.00000000	         -0.11534432	          0.00000000	         -9.91615371	          0.00000000	          0.00000000	        -13.44483161	          0.00000000	
          0.32988368	         83.62376920	        454.55424052	         40.50867649	         -0.19710244	          0.00000000	          0.08891597	       -159.17060548	        938.24833201	          2.57956071	          0.37996452	          0.00000000	         -0.11482948	          0.00000000	         -9.26166443	          0.00000000	          0.00000000	        -12.68778821	          0.00000000	
          0.33773805	         83.81269375	        442.04588676	         38.69808064	         -0.19727522	          0.00000000	          0.08916908	       -140.19865629	        867.38023872	          0.38209701	          0.38001397	          0.00000000	         -0.11433416	          0.00000000	         -8.55570894	          0.00000000	          0.00000000	        -12.07345000	          0.00000000	
          0.34559243	         83.31779831	        428.16071733	         36.81224879	         -0.19739727	          0.00000000	          0.08946365	       -123.89731838	        814.35857106	         -0.86816846	          0.38011075	          0.00000000	         -0.11386411	          0.00000000	         -7.80198581	          0.00000000	          0.00000000	        -11.59279395	          0.00000000	
